# xmcd
#
# Track frame offsets:
#	150
#	14836
#	26943
#	39569
#	51499
#	66007
#	76109
#	87879
#	99646
#	112788
#	121844
#	134863
#	146227
#	156546
#	164948
#	178011
#	193642
#	215610
#	228845
#	240050
#	253898
#	269796
#	279504
#	294128
#
# Disc length: 4381 seconds
#
# Revision: 0
# Processed by: cddbd v1.5.2PL0 Copyright (c) Steve Scherf et al.
# Submitted via: EasyCDDAExtractor 16.0.1.1
#
DISCID=6f111b18
DTITLE=VA_ - Close To Christmas
DYEAR=2004
DGENRE=Christmas
TTITLE0=George Strait - Christmas Cookies
TTITLE1=Brooks and Dunn - Hangin' 'Round The Mistletoe
TTITLE2=Jim Reeves - An Old Christmas Card
TTITLE3=Kenny Rogers and Dolly Parton - With Bells On
TTITLE4=Tractors - Home For Christmas
TTITLE5=Ray Price - With Christmas Near
TTITLE6=Webb Foley - Littletown Christmas
TTITLE7=Michael Martin Murphy and Suzy Bogguss - Two Step 'Round The Christmas T
TTITLE7=ree
TTITLE8=Dave Dudley - Can I Sing A Christmas Song For You
TTITLE9=Hank Snow - The Christmas Cannonball
TTITLE10=Narvel Felts - You Can't Have A White Christmas
TTITLE11=Liz Anderson - Coyote Christmas
TTITLE12=Hank Thompson - It's Christmas Every Day In Alaska
TTITLE13=Merle Haggard - Grandma's Christmas Card
TTITLE14=Clinton Gregory - Home Pulls The Heartstrings
TTITLE15=Johnny Paycheck - Honky Tonk Christmas
TTITLE16=Deborah Allen - Walk All the Way To Memphis
TTITLE17=Bobby Bare - Lonely Christmas
TTITLE18=Travis Tritt - Santa Looked A Lot Like Daddy
TTITLE19=Boxcar Willie - Hew Haw Honey
TTITLE20=Alabama - I Was Young Once Too
TTITLE21=Tammy Wynette - One Happy Christmas
TTITLE22=Mike Bella - It's So Close To Christmas
TTITLE23=Ray Stevens - Nightmare Before Christmas
EXTD=
EXTT0=
EXTT1=
EXTT2=
EXTT3=
EXTT4=
EXTT5=
EXTT6=
EXTT7=
EXTT8=
EXTT9=
EXTT10=
EXTT11=
EXTT12=
EXTT13=
EXTT14=
EXTT15=
EXTT16=
EXTT17=
EXTT18=
EXTT19=
EXTT20=
EXTT21=
EXTT22=
EXTT23=
PLAYORDER=
